<svg data-v-fde0c5aa="" xmlns="http://www.w3.org/2000/svg" viewBox="0 0 300 300" class="font"><!----><defs data-v-fde0c5aa=""><!----></defs><rect data-v-fde0c5aa="" fill="#E1EAE7" x="0" y="0" width="300px" height="300px" class="logo-background-square"></rect><defs data-v-fde0c5aa=""><linearGradient data-v-fde0c5aa="" gradientTransform="rotate(25)" id="a5cae01d-9f05-406f-afc6-817ce3d59b45" x1="0%" y1="0%" x2="100%" y2="0%"><stop data-v-fde0c5aa="" offset="0%" stop-color="#041804" stop-opacity="1"></stop><stop data-v-fde0c5aa="" offset="100%" stop-opacity="1"></stop></linearGradient></defs><g data-v-fde0c5aa="" id="0deabd46-44a7-42cc-9a06-1d5b9336d3db" fill="url(#a5cae01d-9f05-406f-afc6-817ce3d59b45)" transform="matrix(2.726146065931768,0,0,2.726146065931768,38.74597278692265,107.10409128858386)"><path d="M7.23 19.32L7.23 19.32L6.64 19.33Q5.75 19.33 5.54 19.05L5.54 19.05Q5.44 18.93 5.44 18.75Q5.44 18.58 5.58 18.51Q5.71 18.44 5.88 18.44Q6.05 18.43 6.19 18.33Q6.32 18.23 6.32 18.01L6.32 18.01L6.33 16.02Q6.33 14.77 6.03 14.17L6.03 14.17Q5.70 13.50 4.66 13.50L4.66 13.50Q3.57 13.50 3.13 14.19L3.13 14.19Q2.73 14.83 2.73 16.06L2.73 16.06L2.73 18.01Q2.73 18.41 3.18 18.43Q3.62 18.46 3.62 18.79L3.62 18.79Q3.62 19.16 3.20 19.25L3.20 19.25Q2.90 19.32 2.34 19.32L2.34 19.32L1.76 19.33Q0.86 19.33 0.65 19.05L0.65 19.05Q0.55 18.93 0.55 18.75Q0.55 18.58 0.69 18.51Q0.83 18.44 0.99 18.44Q1.16 18.43 1.30 18.33Q1.44 18.23 1.44 18.01L1.44 18.01L1.44 10.57Q1.44 10.17 0.94 10.09L0.94 10.09Q0.60 10.04 0.53 9.97Q0.46 9.91 0.46 9.75Q0.46 9.60 0.60 9.48Q0.75 9.36 0.98 9.30L0.98 9.30Q1.39 9.19 1.89 9.19L1.89 9.19Q2.74 9.19 2.74 9.70L2.74 9.70L2.74 13.67Q3.67 12.62 5.09 12.62Q6.51 12.62 7.07 13.35Q7.63 14.08 7.63 15.55L7.63 15.55L7.62 18.01Q7.62 18.41 8.06 18.43Q8.50 18.46 8.50 18.79L8.50 18.79Q8.50 19.16 8.09 19.25L8.09 19.25Q7.78 19.32 7.23 19.32ZM10.10 10.74L10.10 10.74Q10.10 10.44 10.39 10.18Q10.68 9.91 11.02 9.91Q11.37 9.91 11.69 10.12Q12.02 10.34 12.02 10.68Q12.02 11.03 11.74 11.27Q11.47 11.50 11.07 11.50Q10.68 11.50 10.39 11.29Q10.10 11.07 10.10 10.74ZM11.53 19.32L11.53 19.32L10.94 19.33Q10.04 19.33 9.83 19.05L9.83 19.05Q9.73 18.93 9.73 18.75Q9.73 18.58 9.87 18.51Q10.01 18.44 10.18 18.44Q10.34 18.43 10.48 18.33Q10.62 18.23 10.62 18.01L10.62 18.01L10.62 14.33Q10.62 13.71 10.13 13.67L10.13 13.67Q10.08 13.66 10.01 13.65Q9.93 13.64 9.90 13.64Q9.86 13.64 9.81 13.63Q9.76 13.62 9.74 13.60Q9.71 13.59 9.69 13.57L9.69 13.57Q9.64 13.54 9.64 13.37Q9.64 13.21 9.84 13.04L9.84 13.04Q10.23 12.73 10.88 12.73L10.88 12.73Q11.48 12.73 11.59 12.78Q11.70 12.82 11.77 12.88L11.77 12.88Q11.92 12.97 11.92 13.24L11.92 13.24L11.92 18.01Q11.92 18.41 12.36 18.43Q12.80 18.46 12.80 18.79L12.80 18.79Q12.80 19.16 12.39 19.25L12.39 19.25Q12.07 19.32 11.53 19.32ZM20.15 15.07L20.15 15.07Q20.15 15.69 19.68 16.16L19.68 16.16Q18.76 17.08 17.05 17.08L17.05 17.08Q16.71 17.08 16.34 17.02Q15.96 16.95 15.87 16.94L15.87 16.94L15.87 16.93Q15.35 17.37 15.35 17.70L15.35 17.70Q15.35 18.00 15.64 18.10L15.64 18.10Q16.06 18.25 16.80 18.27Q17.55 18.28 17.96 18.29Q18.38 18.30 18.87 18.33Q19.35 18.37 19.72 18.47Q20.09 18.57 20.41 18.73L20.41 18.73Q21.07 19.07 21.07 19.89L21.07 19.89Q21.07 20.51 20.75 20.98Q20.43 21.45 19.89 21.72L19.89 21.72Q18.81 22.28 17.33 22.28L17.33 22.28Q16.04 22.28 15.07 21.92L15.07 21.92Q14.54 21.73 14.23 21.36Q13.92 20.99 13.92 20.47L13.92 20.47Q13.92 19.50 14.90 18.97L14.90 18.97Q14.64 18.72 14.55 18.49Q14.46 18.27 14.46 17.96Q14.46 17.66 14.51 17.50Q14.57 17.34 14.68 17.20L14.68 17.20Q14.83 17.02 15.24 16.71L15.24 16.71Q14.60 16.39 14.26 15.99Q13.92 15.59 13.92 14.98Q13.92 14.37 14.21 13.92Q14.49 13.47 14.96 13.20L14.96 13.20Q15.90 12.66 17.06 12.66L17.06 12.66Q17.39 12.66 18.29 12.83Q19.19 13.00 19.30 13.00L19.30 13.00Q19.91 13.00 20.01 12.39L20.01 12.39Q20.88 12.39 20.88 13.08L20.88 13.08Q20.88 13.42 20.68 13.61Q20.48 13.81 20.22 13.81Q19.95 13.81 19.65 13.78L19.65 13.78Q19.85 13.95 20.00 14.31Q20.15 14.68 20.15 15.07ZM17.09 13.25Q16.35 13.25 15.84 13.68Q15.32 14.11 15.32 14.81Q15.32 15.52 15.85 15.97Q16.38 16.42 17.14 16.42Q17.91 16.42 18.39 16.00Q18.86 15.58 18.86 14.90Q18.86 14.23 18.34 13.74Q17.83 13.25 17.09 13.25ZM17.21 21.48L17.21 21.48Q18.26 21.48 18.81 21.26Q19.35 21.03 19.56 20.74Q19.78 20.45 19.78 20.05L19.78 20.05Q19.78 19.21 16.51 19.21L16.51 19.21Q15.59 19.21 15.59 19.19L15.59 19.19Q15.07 19.71 15.07 20.19L15.07 20.19Q15.07 21.48 17.21 21.48ZM28.47 19.32L28.47 19.32L27.88 19.33Q26.99 19.33 26.78 19.05L26.78 19.05Q26.68 18.93 26.68 18.75Q26.68 18.58 26.82 18.51Q26.95 18.44 27.12 18.44Q27.29 18.43 27.43 18.33Q27.56 18.23 27.56 18.01L27.56 18.01L27.57 16.02Q27.57 14.77 27.27 14.17L27.27 14.17Q26.94 13.50 25.90 13.50L25.90 13.50Q24.81 13.50 24.37 14.19L24.37 14.19Q23.97 14.83 23.97 16.06L23.97 16.06L23.97 18.01Q23.97 18.41 24.41 18.43Q24.86 18.46 24.86 18.79L24.86 18.79Q24.86 19.16 24.44 19.25L24.44 19.25Q24.14 19.32 23.58 19.32L23.58 19.32L23.00 19.33Q22.10 19.33 21.89 19.05L21.89 19.05Q21.79 18.93 21.79 18.75Q21.79 18.58 21.93 18.51Q22.07 18.44 22.23 18.44Q22.40 18.43 22.54 18.33Q22.67 18.23 22.67 18.01L22.67 18.01L22.67 10.57Q22.67 10.17 22.18 10.09L22.18 10.09Q21.84 10.04 21.77 9.97Q21.70 9.91 21.70 9.75Q21.70 9.60 21.84 9.48Q21.98 9.36 22.22 9.30L22.22 9.30Q22.63 9.19 23.13 9.19L23.13 9.19Q23.98 9.19 23.98 9.70L23.98 9.70L23.98 13.67Q24.91 12.62 26.33 12.62Q27.75 12.62 28.31 13.35Q28.87 14.08 28.87 15.55L28.87 15.55L28.86 18.01Q28.86 18.41 29.30 18.43Q29.74 18.46 29.74 18.79L29.74 18.79Q29.74 19.16 29.33 19.25L29.33 19.25Q29.02 19.32 28.47 19.32ZM38.18 14.18Q37.89 13.81 37.35 13.59Q36.82 13.36 36.16 13.36Q35.49 13.36 35.03 13.75L35.03 13.75Q34.13 14.49 34.13 15.95L34.13 15.95Q34.13 17.08 34.74 17.86Q35.35 18.64 36.33 18.64Q37.31 18.64 37.74 18.23Q38.18 17.83 38.18 16.88L38.18 16.88L38.18 14.18ZM36.29 12.63L36.29 12.63Q36.74 12.63 37.30 12.77Q37.86 12.92 38.18 13.08L38.18 13.08L38.18 10.79Q38.18 10.17 37.69 10.12L37.69 10.12Q37.64 10.12 37.56 10.11Q37.49 10.10 37.45 10.10Q37.42 10.10 37.37 10.09Q37.32 10.08 37.29 10.06Q37.27 10.05 37.25 10.03L37.25 10.03Q37.20 9.99 37.20 9.83Q37.20 9.67 37.41 9.50L37.41 9.50Q37.80 9.19 38.45 9.19L38.45 9.19Q39.14 9.19 39.25 9.27L39.25 9.27Q39.48 9.43 39.48 9.70L39.48 9.70L39.48 17.18Q39.48 17.94 39.65 18.16L39.65 18.16Q39.82 18.38 39.95 18.43Q40.09 18.48 40.19 18.51Q40.28 18.55 40.33 18.56Q40.37 18.58 40.43 18.62L40.43 18.62Q40.54 18.68 40.54 18.81L40.54 18.81Q40.54 19.10 40.23 19.23Q39.93 19.37 39.43 19.37Q38.92 19.37 38.70 19.17Q38.47 18.98 38.30 18.47L38.30 18.47Q37.74 19.46 35.96 19.46L35.96 19.46Q34.54 19.46 33.65 18.52Q32.76 17.58 32.76 16.07Q32.76 14.57 33.75 13.60Q34.74 12.63 36.29 12.63ZM42.10 18.57Q41.15 17.64 41.15 16.11Q41.15 14.57 42.11 13.61Q43.06 12.65 44.54 12.65L44.54 12.65Q45.71 12.65 46.51 13.40Q47.31 14.16 47.31 15.30L47.31 15.30Q47.31 15.85 46.44 15.85L46.44 15.85L42.48 15.85Q42.49 16.96 43.20 17.72Q43.90 18.48 44.97 18.48L44.97 18.48Q45.68 18.48 46.35 18.06L46.35 18.06Q46.71 17.84 46.81 17.84Q46.91 17.84 47.03 17.94Q47.16 18.04 47.16 18.18L47.16 18.18Q47.16 18.56 46.68 18.88Q46.20 19.20 45.62 19.35Q45.04 19.50 44.60 19.50L44.60 19.50Q43.05 19.50 42.10 18.57ZM46.05 15.13L46.05 15.13Q46.04 14.35 45.64 13.86Q45.25 13.36 44.48 13.36Q43.72 13.36 43.15 13.91Q42.58 14.46 42.55 15.16L42.55 15.16L44.15 15.16Q45.21 15.16 46.05 15.13ZM50.09 19.32L50.09 19.32L49.51 19.33Q48.61 19.33 48.40 19.05L48.40 19.05Q48.30 18.93 48.30 18.75Q48.30 18.58 48.44 18.51Q48.58 18.44 48.74 18.44Q48.91 18.43 49.05 18.33Q49.18 18.23 49.18 18.01L49.18 18.01L49.18 14.11Q49.18 13.71 48.69 13.63L48.69 13.63Q48.35 13.58 48.28 13.51Q48.21 13.45 48.21 13.28Q48.21 13.11 48.45 12.97L48.45 12.97Q48.85 12.73 49.46 12.73Q50.07 12.73 50.25 12.90Q50.42 13.08 50.42 13.68L50.42 13.68Q51.36 12.62 53.00 12.62L53.00 12.62Q54.33 12.62 54.89 13.35Q55.45 14.08 55.45 15.55L55.45 15.55L55.45 18.01Q55.45 18.41 55.89 18.43Q56.33 18.46 56.33 18.79L56.33 18.79Q56.33 19.15 55.90 19.25L55.90 19.25Q55.59 19.32 55.04 19.32L55.04 19.32L54.45 19.33Q53.55 19.33 53.34 19.05L53.34 19.05Q53.25 18.93 53.25 18.75Q53.25 18.58 53.38 18.51Q53.52 18.44 53.69 18.44Q53.85 18.43 53.99 18.33Q54.13 18.23 54.13 18.01L54.13 18.01L54.13 16.02Q54.13 14.75 53.83 14.16L53.83 14.16Q53.50 13.50 52.51 13.50L52.51 13.50Q51.32 13.50 50.89 14.14L50.89 14.14Q50.48 14.74 50.48 16.06L50.48 16.06L50.48 18.01Q50.48 18.41 50.92 18.43Q51.37 18.46 51.37 18.79L51.37 18.79Q51.37 19.16 50.95 19.25L50.95 19.25Q50.65 19.32 50.09 19.32ZM60.19 18.70L60.19 18.70Q61.73 18.70 61.73 17.75L61.73 17.75Q61.73 17.04 60.34 16.64L60.34 16.64Q60.08 16.56 59.71 16.46L59.71 16.46Q59.02 16.28 58.78 16.18L58.78 16.18Q58.18 15.95 57.76 15.50Q57.35 15.06 57.35 14.45L57.35 14.45Q57.35 13.67 58.10 13.15Q58.84 12.63 59.90 12.63L59.90 12.63Q60.94 12.63 61.84 13.00L61.84 13.00Q62.28 13.19 62.56 13.51Q62.84 13.84 62.84 14.20Q62.84 14.55 62.55 14.77Q62.27 14.98 61.96 14.98Q61.66 14.98 61.56 14.92Q61.46 14.86 61.46 14.65L61.46 14.65Q61.46 13.33 60.06 13.33L60.06 13.33Q59.48 13.33 59.05 13.59Q58.62 13.84 58.62 14.25L58.62 14.25Q58.62 14.90 59.96 15.27L59.96 15.27Q60.17 15.33 60.47 15.40Q60.77 15.48 61.02 15.56Q61.28 15.64 61.55 15.75Q61.83 15.85 62.14 16.02Q62.45 16.19 62.64 16.39L62.64 16.39Q63.08 16.84 63.08 17.48Q63.08 18.12 62.65 18.59L62.65 18.59Q61.80 19.50 60.19 19.50L60.19 19.50Q59.14 19.50 58.26 19.15L58.26 19.15Q57.81 18.98 57.54 18.66Q57.26 18.35 57.26 17.99Q57.26 17.64 57.49 17.44Q57.72 17.25 58.00 17.25Q58.29 17.25 58.49 17.42Q58.69 17.60 58.69 17.87Q58.69 18.13 58.65 18.43L58.65 18.43Q59.37 18.70 60.19 18.70ZM65.00 10.74L65.00 10.74Q65.00 10.44 65.29 10.18Q65.58 9.91 65.92 9.91Q66.27 9.91 66.59 10.12Q66.92 10.34 66.92 10.68Q66.92 11.03 66.64 11.27Q66.37 11.50 65.97 11.50Q65.58 11.50 65.29 11.29Q65.00 11.07 65.00 10.74ZM66.42 19.32L66.42 19.32L65.84 19.33Q64.94 19.33 64.73 19.05L64.73 19.05Q64.63 18.93 64.63 18.75Q64.63 18.58 64.77 18.51Q64.91 18.44 65.07 18.44Q65.24 18.43 65.38 18.33Q65.52 18.23 65.52 18.01L65.52 18.01L65.52 14.33Q65.52 13.71 65.03 13.67L65.03 13.67Q64.98 13.66 64.91 13.65Q64.83 13.64 64.80 13.64Q64.76 13.64 64.71 13.63Q64.66 13.62 64.64 13.60Q64.61 13.59 64.59 13.57L64.59 13.57Q64.54 13.54 64.54 13.37Q64.54 13.21 64.74 13.04L64.74 13.04Q65.13 12.73 65.78 12.73L65.78 12.73Q66.38 12.73 66.49 12.78Q66.60 12.82 66.67 12.88L66.67 12.88Q66.81 12.97 66.81 13.24L66.81 13.24L66.81 18.01Q66.81 18.41 67.26 18.43Q67.70 18.46 67.70 18.79L67.70 18.79Q67.70 19.16 67.29 19.25L67.29 19.25Q66.97 19.32 66.42 19.32ZM69.28 17.48L69.28 13.66L68.87 13.67Q68.61 13.67 68.50 13.62Q68.38 13.57 68.38 13.42Q68.38 13.26 68.51 13.14Q68.65 13.01 68.82 12.94L68.82 12.94Q69.29 12.75 69.38 12.62Q69.47 12.48 69.66 12.03L69.66 12.03Q70.12 10.90 70.42 10.90L70.42 10.90Q70.58 10.90 70.60 11.24Q70.63 11.58 70.63 11.76Q70.64 11.94 70.63 12.29Q70.62 12.64 70.62 12.78L70.62 12.78L72.25 12.78Q72.49 12.78 72.65 12.90Q72.82 13.02 72.82 13.22Q72.82 13.42 72.66 13.53Q72.50 13.64 72.26 13.64L72.26 13.64L70.62 13.64L70.62 17.13Q70.62 18.61 71.36 18.61L71.36 18.61Q71.57 18.61 71.97 18.49Q72.37 18.36 72.50 18.36L72.50 18.36Q72.78 18.36 72.78 18.68L72.78 18.68Q72.78 18.94 72.12 19.19Q71.46 19.44 70.76 19.44Q70.07 19.44 69.68 18.90Q69.28 18.36 69.28 17.48L69.28 17.48ZM77.42 17.92L77.42 17.92Q79.15 14.26 79.15 14.05Q79.15 13.85 79.00 13.77Q78.85 13.69 78.67 13.67L78.67 13.67Q78.20 13.62 78.20 13.39L78.20 13.39Q78.20 12.77 79.67 12.77L79.67 12.77L79.94 12.77Q80.60 12.77 80.88 12.98Q81.16 13.19 81.16 13.38Q81.16 13.56 80.96 13.60L80.96 13.60Q80.53 13.68 80.33 13.84Q80.12 14 79.92 14.43Q79.72 14.86 79.26 15.90Q78.79 16.94 78.48 17.60L78.48 17.60L77.01 20.62Q76.77 21.11 76.41 21.43Q76.04 21.76 75.54 21.76Q75.04 21.76 74.67 21.51Q74.30 21.26 74.30 20.87Q74.30 20.47 74.54 20.24Q74.77 20.02 75.13 20.02Q75.48 20.02 75.77 20.19Q76.05 20.37 76.06 20.63L76.06 20.63Q76.61 19.76 76.79 19.28L76.79 19.28Q76.51 18.48 75.49 16.50Q74.46 14.51 74.35 14.28Q74.25 14.05 74.17 13.97Q74.09 13.88 73.96 13.82Q73.84 13.75 73.76 13.73Q73.68 13.70 73.49 13.65Q73.31 13.60 73.20 13.57Q73.08 13.54 73.08 13.36L73.08 13.36Q73.08 12.77 74.70 12.77L74.70 12.77Q75.69 12.77 75.97 12.87L75.97 12.87Q76.51 13.06 76.51 13.38L76.51 13.38Q76.51 13.59 76.10 13.67Q75.69 13.75 75.69 13.97L75.69 13.97Q75.69 13.99 75.93 14.62L75.93 14.62Q76.72 16.65 77.42 17.92Z"></path></g><!----><!----></svg>