<svg xmlns="http://www.w3.org/2000/svg" version="1.1" xmlns:xlink="http://www.w3.org/1999/xlink" xmlns:svgjs="http://svgjs.dev/svgjs" viewBox="0 0 7.211597211234146 7.171776096788783"><g transform="matrix(1,0,0,1,1.6993044649920734,3.1254388296443913)"><rect width="7.211597211234146" height="7.211597211234146" x="-1.6993044649920734" y="-3.145349386867073" fill="#ffffff"></rect><g transform="matrix(1,0,0,1,0,0)"><g clip-path="url(#SvgjsClipPath1003)"><path d=" M 4.833346052359271 0.46044921875 C 4.833346052359271 2.087901339565397 3.514035704217715 3.4072116877069534 1.886583583402318 3.4072116877069534 C 0.25913146258692055 3.4072116877069534 -1.0601788855546355 2.087901339565397 -1.0601788855546355 0.46044921875 C -1.0601788855546355 -1.1670029020653974 0.25913146258692055 -2.4863132502069534 1.886583583402318 -2.4863132502069534 C 3.514035704217715 -2.4863132502069534 4.833346052359271 -1.1670029020653974 4.833346052359271 0.46044921875 Z" fill="#facf0e" transform="matrix(1,0,0,1,0,0)" fill-rule="nonzero"></path></g></g><g transform="matrix(1,0,0,1,0,0)"><path d=" M 0.37109375 0.9331054687499999 Q 0.31298828125 0.9331054687499999 0.264404296875 0.9194335937499999 Q 0.2158203125 0.9057617187499999 0.177001953125 0.8820800781249999 Q 0.13818359375 0.8583984374999999 0.10888671875 0.8261718749999999 Q 0.07958984375 0.7939453124999999 0.06005859375 0.7565917968749999 Q 0.04052734375 0.7192382812499999 0.03076171875 0.6787109374999999 Q 0.02099609375 0.6381835937499999 0.02099609375 0.5976562499999999 Q 0.02099609375 0.5561523437499999 0.031494140625 0.5158691406249999 Q 0.0419921875 0.4755859374999999 0.063232421875 0.4394531249999999 Q 0.08447265625 0.4033203124999999 0.1162109375 0.3730468749999999 Q 0.14794921875 0.3427734374999999 0.190673828125 0.3208007812499999 Q 0.2333984375 0.2988281249999999 0.286865234375 0.2863769531249999 Q 0.34033203125 0.2739257812499999 0.40478515625 0.2739257812499999 Q 0.46142578125 0.2739257812499999 0.508544921875 0.2866210937499999 Q 0.5556640625 0.2993164062499999 0.59375 0.3215332031249999 Q 0.6318359375 0.3437499999999999 0.660400390625 0.3740234374999999 Q 0.68896484375 0.4042968749999999 0.7080078125 0.4399414062499999 Q 0.72705078125 0.4755859374999999 0.736572265625 0.5151367187499999 Q 0.74609375 0.5546874999999999 0.74609375 0.5947265624999999 Q 0.74609375 0.6362304687499999 0.73583984375 0.6777343749999999 Q 0.7255859375 0.7192382812499999 0.704833984375 0.7568359374999999 Q 0.68408203125 0.7944335937499999 0.65283203125 0.8266601562499999 Q 0.62158203125 0.8588867187499999 0.579833984375 0.8825683593749999 Q 0.5380859375 0.9062499999999999 0.48583984375 0.9196777343749999 Q 0.43359375 0.9331054687499999 0.37109375 0.9331054687499999 M 0.39306640625 0.8081054687499999 Q 0.4091796875 0.8081054687499999 0.420166015625 0.7985839843749999 Q 0.43115234375 0.7890624999999999 0.43798828125 0.7709960937499999 Q 0.44482421875 0.7529296874999999 0.44775390625 0.7272949218749999 Q 0.45068359375 0.7016601562499999 0.45068359375 0.6699218749999999 Q 0.45068359375 0.6420898437499999 0.4501953125 0.6110839843749999 Q 0.44970703125 0.5800781249999999 0.44775390625 0.5500488281249999 Q 0.44580078125 0.5200195312499999 0.44140625 0.4926757812499999 Q 0.43701171875 0.4653320312499999 0.428955078125 0.4443359374999999 Q 0.4208984375 0.4233398437499999 0.40869140625 0.4111328124999999 Q 0.396484375 0.3989257812499999 0.37890625 0.3989257812499999 Q 0.36181640625 0.3989257812499999 0.349853515625 0.4084472656249999 Q 0.337890625 0.4179687499999999 0.330078125 0.4350585937499999 Q 0.322265625 0.4521484374999999 0.318603515625 0.4760742187499999 Q 0.31494140625 0.4999999999999999 0.31494140625 0.5288085937499999 Q 0.31494140625 0.5556640624999999 0.31591796875 0.5869140624999999 Q 0.31689453125 0.6181640624999999 0.31982421875 0.6491699218749999 Q 0.32275390625 0.6801757812499999 0.328369140625 0.7089843749999999 Q 0.333984375 0.7377929687499999 0.342529296875 0.7597656249999999 Q 0.35107421875 0.7817382812499999 0.363525390625 0.7949218749999999 Q 0.3759765625 0.8081054687499999 0.39306640625 0.8081054687499999 M 1.3271484375 0.4550781249999999 Q 1.337890625 0.4467773437499999 1.341552734375 0.4399414062499999 Q 1.34521484375 0.4331054687499999 1.34521484375 0.4277343749999999 Q 1.34521484375 0.4208984374999999 1.3369140625 0.4145507812499999 Q 1.32861328125 0.4082031249999999 1.318359375 0.4013671874999999 Q 1.30810546875 0.3945312499999999 1.2998046875 0.3869628906249999 Q 1.29150390625 0.3793945312499999 1.29150390625 0.3701171874999999 Q 1.29150390625 0.3442382812499999 1.306884765625 0.3281249999999999 Q 1.322265625 0.3120117187499999 1.346435546875 0.3032226562499999 Q 1.37060546875 0.2944335937499999 1.399658203125 0.2912597656249999 Q 1.4287109375 0.2880859374999999 1.4560546875 0.2880859374999999 Q 1.49755859375 0.2880859374999999 1.526611328125 0.2924804687499999 Q 1.5556640625 0.2968749999999999 1.573974609375 0.3068847656249999 Q 1.59228515625 0.3168945312499999 1.600341796875 0.3325195312499999 Q 1.6083984375 0.3481445312499999 1.6083984375 0.3701171874999999 Q 1.6083984375 0.3842773437499999 1.6025390625 0.3920898437499999 Q 1.5966796875 0.3999023437499999 1.58642578125 0.4047851562499999 Q 1.576171875 0.4096679687499999 1.562744140625 0.4130859374999999 Q 1.54931640625 0.4165039062499999 1.53369140625 0.4213867187499999 Q 1.51806640625 0.4262695312499999 1.501708984375 0.4338378906249999 Q 1.4853515625 0.4414062499999999 1.46923828125 0.4550781249999999 L 1.396484375 0.5170898437499999 L 1.54931640625 0.7416992187499999 Q 1.56103515625 0.7587890624999999 1.57421875 0.7668457031249999 Q 1.58740234375 0.7749023437499999 1.6005859375 0.7785644531249999 Q 1.61376953125 0.7822265624999999 1.6259765625 0.7834472656249999 Q 1.63818359375 0.7846679687499999 1.647705078125 0.7871093749999999 Q 1.6572265625 0.7895507812499999 1.662841796875 0.7951660156249999 Q 1.66845703125 0.8007812499999999 1.66845703125 0.8139648437499999 Q 1.66845703125 0.8427734374999999 1.65625 0.8632812499999999 Q 1.64404296875 0.8837890624999999 1.6201171875 0.8964843749999999 Q 1.59619140625 0.9091796874999999 1.560546875 0.9150390624999999 Q 1.52490234375 0.9208984374999999 1.478515625 0.9208984374999999 Q 1.4248046875 0.9208984374999999 1.392578125 0.9152832031249999 Q 1.3603515625 0.9096679687499999 1.34228515625 0.8996582031249999 Q 1.32421875 0.8896484374999999 1.316650390625 0.8759765624999999 Q 1.30908203125 0.8623046874999999 1.304443359375 0.8454589843749999 Q 1.2998046875 0.8286132812499999 1.294921875 0.8098144531249999 Q 1.2900390625 0.7910156249999999 1.27734375 0.7709960937499999 L 1.205078125 0.6577148437499999 Q 1.20361328125 0.6557617187499999 1.201416015625 0.6533203124999999 Q 1.19921875 0.6508789062499999 1.194091796875 0.6486816406249999 Q 1.18896484375 0.6464843749999999 1.18017578125 0.6452636718749999 Q 1.17138671875 0.6440429687499999 1.1572265625 0.6440429687499999 L 1.1572265625 0.7329101562499999 Q 1.1572265625 0.7529296874999999 1.16259765625 0.7641601562499999 Q 1.16796875 0.7753906249999999 1.176025390625 0.7810058593749999 Q 1.18408203125 0.7866210937499999 1.193359375 0.7888183593749999 Q 1.20263671875 0.7910156249999999 1.210693359375 0.7934570312499999 Q 1.21875 0.7958984374999999 1.22412109375 0.8005371093749999 Q 1.2294921875 0.8051757812499999 1.2294921875 0.8159179687499999 Q 1.2294921875 0.8715820312499999 1.171875 0.8962402343749999 Q 1.1142578125 0.9208984374999999 1.00537109375 0.9208984374999999 Q 0.95263671875 0.9208984374999999 0.912109375 0.9150390624999999 Q 0.87158203125 0.9091796874999999 0.84375 0.8962402343749999 Q 0.81591796875 0.8833007812499999 0.801513671875 0.8635253906249999 Q 0.787109375 0.8437499999999999 0.787109375 0.8159179687499999 Q 0.787109375 0.8051757812499999 0.79248046875 0.8005371093749999 Q 0.7978515625 0.7958984374999999 0.8056640625 0.7934570312499999 Q 0.8134765625 0.7910156249999999 0.82275390625 0.7890624999999999 Q 0.83203125 0.7871093749999999 0.83984375 0.7814941406249999 Q 0.84765625 0.7758789062499999 0.85302734375 0.7653808593749999 Q 0.8583984375 0.7548828124999999 0.8583984375 0.7348632812499999 L 0.8583984375 0.1860351562499999 Q 0.8583984375 0.1660156249999999 0.85302734375 0.1555175781249999 Q 0.84765625 0.1450195312499999 0.83984375 0.1394042968749999 Q 0.83203125 0.1337890624999999 0.82275390625 0.1318359374999999 Q 0.8134765625 0.1298828124999999 0.8056640625 0.1274414062499999 Q 0.7978515625 0.12499999999999989 0.79248046875 0.12036132812499989 Q 0.787109375 0.11572265624999989 0.787109375 0.10498046874999989 Q 0.787109375 0.07714843749999989 0.801513671875 0.05737304687499989 Q 0.81591796875 0.03759765624999989 0.84375 0.02465820312499989 Q 0.87158203125 0.011718749999999889 0.912109375 0.005859374999999889 Q 0.95263671875 -1.1102230246251565e-16 1.00537109375 -1.1102230246251565e-16 Q 1.05517578125 -1.1102230246251565e-16 1.085205078125 0.004638671874999889 Q 1.115234375 0.009277343749999889 1.131103515625 0.02075195312499989 Q 1.14697265625 0.03222656249999989 1.152099609375 0.05151367187499989 Q 1.1572265625 0.07080078124999989 1.1572265625 0.10009765624999989 L 1.1572265625 0.5649414062499999 Q 1.1689453125 0.5649414062499999 1.175537109375 0.5642089843749999 Q 1.18212890625 0.5634765624999999 1.1865234375 0.5617675781249999 Q 1.19091796875 0.5600585937499999 1.19482421875 0.5568847656249999 Q 1.19873046875 0.5537109374999999 1.205078125 0.5488281249999999 L 1.3271484375 0.4550781249999999 M 2.01416015625 0.8208007812499999 Q 2.0302734375 0.8208007812499999 2.040283203125 0.8156738281249999 Q 2.05029296875 0.8105468749999999 2.0556640625 0.8010253906249999 Q 2.06103515625 0.7915039062499999 2.062744140625 0.7775878906249999 Q 2.064453125 0.7636718749999999 2.064453125 0.7460937499999999 Q 2.064453125 0.7309570312499999 2.06396484375 0.7075195312499999 Q 2.0634765625 0.6840820312499999 2.06298828125 0.6616210937499999 Q 2.06201171875 0.6352539062499999 2.0615234375 0.6069335937499999 Q 2.0546875 0.6059570312499999 2.048583984375 0.6052246093749999 Q 2.04248046875 0.6044921874999999 2.03662109375 0.6044921874999999 Q 2.01171875 0.6044921874999999 1.994873046875 0.6145019531249999 Q 1.97802734375 0.6245117187499999 1.9677734375 0.6423339843749999 Q 1.95751953125 0.6601562499999999 1.953369140625 0.6843261718749999 Q 1.94921875 0.7084960937499999 1.94921875 0.7368164062499999 Q 1.94921875 0.7539062499999999 1.951171875 0.7692871093749999 Q 1.953125 0.7846679687499999 1.9599609375 0.7961425781249999 Q 1.966796875 0.8076171874999999 1.979736328125 0.8142089843749999 Q 1.99267578125 0.8208007812499999 2.01416015625 0.8208007812499999 M 2.24951171875 0.9208984374999999 Q 2.224609375 0.9208984374999999 2.199951171875 0.9182128906249999 Q 2.17529296875 0.9155273437499999 2.153076171875 0.9072265624999999 Q 2.130859375 0.8989257812499999 2.1123046875 0.8833007812499999 Q 2.09375 0.8676757812499999 2.08056640625 0.8417968749999999 Q 2.07080078125 0.8647460937499999 2.049072265625 0.8818359374999999 Q 2.02734375 0.8989257812499999 1.999755859375 0.9104003906249999 Q 1.97216796875 0.9218749999999999 1.941650390625 0.9274902343749999 Q 1.9111328125 0.9331054687499999 1.88330078125 0.9331054687499999 Q 1.833984375 0.9331054687499999 1.796875 0.9213867187499999 Q 1.759765625 0.9096679687499999 1.734375 0.8879394531249999 Q 1.708984375 0.8662109374999999 1.6962890625 0.8359374999999999 Q 1.68359375 0.8056640624999999 1.68359375 0.7680664062499999 Q 1.68359375 0.7236328124999999 1.698486328125 0.6838378906249999 Q 1.71337890625 0.6440429687499999 1.749267578125 0.6142578124999999 Q 1.78515625 0.5844726562499999 1.84521484375 0.5671386718749999 Q 1.9052734375 0.5498046874999999 1.99560546875 0.5498046874999999 L 2.0625 0.5498046874999999 Q 2.0625 0.4956054687499999 2.058837890625 0.4599609374999999 Q 2.05517578125 0.4243164062499999 2.04736328125 0.4033203124999999 Q 2.03955078125 0.3823242187499999 2.02783203125 0.3740234374999999 Q 2.01611328125 0.3657226562499999 1.99951171875 0.3657226562499999 Q 1.98095703125 0.3657226562499999 1.968505859375 0.3769531249999999 Q 1.9560546875 0.3881835937499999 1.948486328125 0.4094238281249999 Q 1.94091796875 0.4306640624999999 1.937744140625 0.4606933593749999 Q 1.9345703125 0.4907226562499999 1.9345703125 0.5288085937499999 Q 1.91357421875 0.5288085937499999 1.890380859375 0.5280761718749999 Q 1.8671875 0.5273437499999999 1.844482421875 0.5244140624999999 Q 1.82177734375 0.5214843749999999 1.801513671875 0.5153808593749999 Q 1.78125 0.5092773437499999 1.765625 0.4987792968749999 Q 1.75 0.4882812499999999 1.74072265625 0.4721679687499999 Q 1.7314453125 0.4560546874999999 1.7314453125 0.4331054687499999 Q 1.7314453125 0.4008789062499999 1.748291015625 0.3720703124999999 Q 1.76513671875 0.3432617187499999 1.800048828125 0.3215332031249999 Q 1.8349609375 0.2998046874999999 1.888671875 0.2868652343749999 Q 1.9423828125 0.2739257812499999 2.0166015625 0.2739257812499999 Q 2.10302734375 0.2739257812499999 2.16552734375 0.2915039062499999 Q 2.22802734375 0.3090820312499999 2.268310546875 0.3442382812499999 Q 2.30859375 0.3793945312499999 2.327880859375 0.4328613281249999 Q 2.34716796875 0.4863281249999999 2.34716796875 0.5581054687499999 L 2.34716796875 0.7309570312499999 Q 2.34716796875 0.7519531249999999 2.352783203125 0.7636718749999999 Q 2.3583984375 0.7753906249999999 2.366455078125 0.7814941406249999 Q 2.37451171875 0.7875976562499999 2.38427734375 0.7900390624999999 Q 2.39404296875 0.7924804687499999 2.402099609375 0.7951660156249999 Q 2.41015625 0.7978515624999999 2.415771484375 0.8024902343749999 Q 2.42138671875 0.8071289062499999 2.42138671875 0.8178710937499999 Q 2.42138671875 0.8666992187499999 2.377685546875 0.8937988281249999 Q 2.333984375 0.9208984374999999 2.24951171875 0.9208984374999999 M 2.82177734375 0.4018554687499999 Q 2.82177734375 0.3906249999999999 2.80126953125 0.3813476562499999 Q 2.78076171875 0.3720703124999999 2.73876953125 0.3720703124999999 Q 2.71728515625 0.3720703124999999 2.703857421875 0.3745117187499999 Q 2.6904296875 0.3769531249999999 2.6826171875 0.3813476562499999 Q 2.6748046875 0.3857421874999999 2.672119140625 0.3920898437499999 Q 2.66943359375 0.3984374999999999 2.66943359375 0.4067382812499999 Q 2.66943359375 0.4228515624999999 2.68505859375 0.4348144531249999 Q 2.70068359375 0.4467773437499999 2.726318359375 0.4580078124999999 Q 2.751953125 0.4692382812499999 2.78466796875 0.4804687499999999 Q 2.8173828125 0.4916992187499999 2.8515625 0.5061035156249999 Q 2.8857421875 0.5205078124999999 2.91845703125 0.5393066406249999 Q 2.951171875 0.5581054687499999 2.976806640625 0.5837402343749999 Q 3.00244140625 0.6093749999999999 3.01806640625 0.6435546874999999 Q 3.03369140625 0.6777343749999999 3.03369140625 0.7226562499999999 Q 3.03369140625 0.7778320312499999 3.008544921875 0.8176269531249999 Q 2.9833984375 0.8574218749999999 2.9423828125 0.8830566406249999 Q 2.9013671875 0.9086914062499999 2.848876953125 0.9208984374999999 Q 2.79638671875 0.9331054687499999 2.74169921875 0.9331054687499999 Q 2.6865234375 0.9331054687499999 2.633544921875 0.9216308593749999 Q 2.58056640625 0.9101562499999999 2.5390625 0.8896484374999999 Q 2.49755859375 0.8691406249999999 2.47216796875 0.8403320312499999 Q 2.44677734375 0.8115234374999999 2.44677734375 0.7768554687499999 Q 2.44677734375 0.7563476562499999 2.453125 0.7409667968749999 Q 2.45947265625 0.7255859374999999 2.469970703125 0.7155761718749999 Q 2.48046875 0.7055664062499999 2.494140625 0.7006835937499999 Q 2.5078125 0.6958007812499999 2.5224609375 0.6958007812499999 Q 2.5458984375 0.6958007812499999 2.56103515625 0.7011718749999999 Q 2.576171875 0.7065429687499999 2.585693359375 0.7150878906249999 Q 2.59521484375 0.7236328124999999 2.60107421875 0.7346191406249999 Q 2.60693359375 0.7456054687499999 2.6123046875 0.7573242187499999 Q 2.61767578125 0.7690429687499999 2.6240234375 0.7800292968749999 Q 2.63037109375 0.7910156249999999 2.64111328125 0.7995605468749999 Q 2.65185546875 0.8081054687499999 2.668701171875 0.8134765624999999 Q 2.685546875 0.8188476562499999 2.71142578125 0.8188476562499999 Q 2.7529296875 0.8188476562499999 2.772705078125 0.8115234374999999 Q 2.79248046875 0.8041992187499999 2.79248046875 0.7827148437499999 Q 2.79248046875 0.7749023437499999 2.778076171875 0.7673339843749999 Q 2.763671875 0.7597656249999999 2.740234375 0.7514648437499999 Q 2.716796875 0.7431640624999999 2.6865234375 0.7329101562499999 Q 2.65625 0.7226562499999999 2.625 0.7087402343749999 Q 2.59375 0.6948242187499999 2.5634765625 0.6765136718749999 Q 2.533203125 0.6582031249999999 2.509765625 0.6340332031249999 Q 2.486328125 0.6098632812499999 2.471923828125 0.5786132812499999 Q 2.45751953125 0.5473632812499999 2.45751953125 0.5078124999999999 Q 2.45751953125 0.4643554687499999 2.46826171875 0.4299316406249999 Q 2.47900390625 0.3955078124999999 2.498291015625 0.3693847656249999 Q 2.517578125 0.3432617187499999 2.54443359375 0.3251953124999999 Q 2.5712890625 0.3071289062499999 2.60302734375 0.2956542968749999 Q 2.634765625 0.2841796874999999 2.67041015625 0.2790527343749999 Q 2.7060546875 0.2739257812499999 2.74365234375 0.2739257812499999 Q 2.80859375 0.2739257812499999 2.85498046875 0.2861328124999999 Q 2.9013671875 0.2983398437499999 2.931396484375 0.3173828124999999 Q 2.96142578125 0.3364257812499999 2.9755859375 0.3601074218749999 Q 2.98974609375 0.3837890624999999 2.98974609375 0.4067382812499999 Q 2.98974609375 0.4228515624999999 2.983154296875 0.4372558593749999 Q 2.9765625 0.4516601562499999 2.9638671875 0.4624023437499999 Q 2.951171875 0.4731445312499999 2.93310546875 0.4794921874999999 Q 2.9150390625 0.4858398437499999 2.8916015625 0.4858398437499999 Q 2.865234375 0.4858398437499999 2.848388671875 0.4829101562499999 Q 2.83154296875 0.4799804687499999 2.821533203125 0.4748535156249999 Q 2.8115234375 0.4697265624999999 2.8076171875 0.4626464843749999 Q 2.8037109375 0.4555664062499999 2.8037109375 0.4467773437499999 Q 2.8037109375 0.4379882812499999 2.806640625 0.4335937499999999 Q 2.8095703125 0.4291992187499999 2.812744140625 0.4250488281249999 Q 2.81591796875 0.4208984374999999 2.81884765625 0.4160156249999999 Q 2.82177734375 0.4111328124999999 2.82177734375 0.4018554687499999 M 3.4033203125 0.8208007812499999 Q 3.41943359375 0.8208007812499999 3.429443359375 0.8156738281249999 Q 3.439453125 0.8105468749999999 3.44482421875 0.8010253906249999 Q 3.4501953125 0.7915039062499999 3.451904296875 0.7775878906249999 Q 3.45361328125 0.7636718749999999 3.45361328125 0.7460937499999999 Q 3.45361328125 0.7309570312499999 3.453125 0.7075195312499999 Q 3.45263671875 0.6840820312499999 3.4521484375 0.6616210937499999 Q 3.451171875 0.6352539062499999 3.45068359375 0.6069335937499999 Q 3.44384765625 0.6059570312499999 3.437744140625 0.6052246093749999 Q 3.431640625 0.6044921874999999 3.42578125 0.6044921874999999 Q 3.40087890625 0.6044921874999999 3.384033203125 0.6145019531249999 Q 3.3671875 0.6245117187499999 3.35693359375 0.6423339843749999 Q 3.3466796875 0.6601562499999999 3.342529296875 0.6843261718749999 Q 3.33837890625 0.7084960937499999 3.33837890625 0.7368164062499999 Q 3.33837890625 0.7539062499999999 3.34033203125 0.7692871093749999 Q 3.34228515625 0.7846679687499999 3.34912109375 0.7961425781249999 Q 3.35595703125 0.8076171874999999 3.368896484375 0.8142089843749999 Q 3.3818359375 0.8208007812499999 3.4033203125 0.8208007812499999 M 3.638671875 0.9208984374999999 Q 3.61376953125 0.9208984374999999 3.589111328125 0.9182128906249999 Q 3.564453125 0.9155273437499999 3.542236328125 0.9072265624999999 Q 3.52001953125 0.8989257812499999 3.50146484375 0.8833007812499999 Q 3.48291015625 0.8676757812499999 3.4697265625 0.8417968749999999 Q 3.4599609375 0.8647460937499999 3.438232421875 0.8818359374999999 Q 3.41650390625 0.8989257812499999 3.388916015625 0.9104003906249999 Q 3.361328125 0.9218749999999999 3.330810546875 0.9274902343749999 Q 3.30029296875 0.9331054687499999 3.2724609375 0.9331054687499999 Q 3.22314453125 0.9331054687499999 3.18603515625 0.9213867187499999 Q 3.14892578125 0.9096679687499999 3.12353515625 0.8879394531249999 Q 3.09814453125 0.8662109374999999 3.08544921875 0.8359374999999999 Q 3.07275390625 0.8056640624999999 3.07275390625 0.7680664062499999 Q 3.07275390625 0.7236328124999999 3.087646484375 0.6838378906249999 Q 3.1025390625 0.6440429687499999 3.138427734375 0.6142578124999999 Q 3.17431640625 0.5844726562499999 3.234375 0.5671386718749999 Q 3.29443359375 0.5498046874999999 3.384765625 0.5498046874999999 L 3.45166015625 0.5498046874999999 Q 3.45166015625 0.4956054687499999 3.447998046875 0.4599609374999999 Q 3.4443359375 0.4243164062499999 3.4365234375 0.4033203124999999 Q 3.4287109375 0.3823242187499999 3.4169921875 0.3740234374999999 Q 3.4052734375 0.3657226562499999 3.388671875 0.3657226562499999 Q 3.3701171875 0.3657226562499999 3.357666015625 0.3769531249999999 Q 3.34521484375 0.3881835937499999 3.337646484375 0.4094238281249999 Q 3.330078125 0.4306640624999999 3.326904296875 0.4606933593749999 Q 3.32373046875 0.4907226562499999 3.32373046875 0.5288085937499999 Q 3.302734375 0.5288085937499999 3.279541015625 0.5280761718749999 Q 3.25634765625 0.5273437499999999 3.233642578125 0.5244140624999999 Q 3.2109375 0.5214843749999999 3.190673828125 0.5153808593749999 Q 3.17041015625 0.5092773437499999 3.15478515625 0.4987792968749999 Q 3.13916015625 0.4882812499999999 3.1298828125 0.4721679687499999 Q 3.12060546875 0.4560546874999999 3.12060546875 0.4331054687499999 Q 3.12060546875 0.4008789062499999 3.137451171875 0.3720703124999999 Q 3.154296875 0.3432617187499999 3.189208984375 0.3215332031249999 Q 3.22412109375 0.2998046874999999 3.27783203125 0.2868652343749999 Q 3.33154296875 0.2739257812499999 3.40576171875 0.2739257812499999 Q 3.4921875 0.2739257812499999 3.5546875 0.2915039062499999 Q 3.6171875 0.3090820312499999 3.657470703125 0.3442382812499999 Q 3.69775390625 0.3793945312499999 3.717041015625 0.4328613281249999 Q 3.736328125 0.4863281249999999 3.736328125 0.5581054687499999 L 3.736328125 0.7309570312499999 Q 3.736328125 0.7519531249999999 3.741943359375 0.7636718749999999 Q 3.74755859375 0.7753906249999999 3.755615234375 0.7814941406249999 Q 3.763671875 0.7875976562499999 3.7734375 0.7900390624999999 Q 3.783203125 0.7924804687499999 3.791259765625 0.7951660156249999 Q 3.79931640625 0.7978515624999999 3.804931640625 0.8024902343749999 Q 3.810546875 0.8071289062499999 3.810546875 0.8178710937499999 Q 3.810546875 0.8666992187499999 3.766845703125 0.8937988281249999 Q 3.72314453125 0.9208984374999999 3.638671875 0.9208984374999999" fill="#202020" fill-rule="nonzero"></path></g><g transform="matrix(1,0,0,1,0,0)"></g></g><defs><clipPath id="SvgjsClipPath1003"><path d=" M -1.0999999999999996 -2.5261343646523176 h 6.012988281249999 v 5.973167166804635 h -6.012988281249999 Z"></path></clipPath></defs></svg>