<svg data-v-fde0c5aa="" xmlns="http://www.w3.org/2000/svg" viewBox="0 0 300 300" class="font"><!----><defs data-v-fde0c5aa=""><!----></defs><rect data-v-fde0c5aa="" fill="#EBE9F5" x="0" y="0" width="300px" height="300px" class="logo-background-square"></rect><defs data-v-fde0c5aa=""><linearGradient data-v-fde0c5aa="" gradientTransform="rotate(25)" id="cae33117-ea04-4d14-a8bd-2c8465933a11" x1="0%" y1="0%" x2="100%" y2="0%"><stop data-v-fde0c5aa="" offset="0%" stop-color="#6566CE" stop-opacity="1"></stop><stop data-v-fde0c5aa="" offset="100%" stop-color="#DBC1D0" stop-opacity="1"></stop></linearGradient></defs><g data-v-fde0c5aa="" id="6b42fec8-04b0-4c27-9165-4b2ac5944ff1" fill="url(#cae33117-ea04-4d14-a8bd-2c8465933a11)" transform="matrix(2.433628277506393,0,0,2.433628277506393,38.077433753605504,126.63716760758311)"><path d="M9.59 7.98L9.59 7.98Q9.59 9.01 9.37 9.87Q9.14 10.73 8.70 11.39Q8.26 12.04 7.61 12.47Q6.97 12.90 6.13 13.05L6.13 13.05Q6.19 13.77 6.36 14.25Q6.54 14.73 6.80 15.02Q7.07 15.31 7.42 15.44Q7.78 15.56 8.20 15.56L8.20 15.56L8.43 15.56L8.43 16.21L7.83 16.21Q7.27 16.21 6.72 16.07Q6.17 15.92 5.72 15.56Q5.27 15.20 4.97 14.60Q4.66 14.01 4.59 13.10L4.59 13.10Q3.63 13.00 2.92 12.60Q2.20 12.19 1.73 11.52Q1.26 10.86 1.02 9.96Q0.79 9.06 0.79 7.97L0.79 7.97Q0.79 6.81 1.06 5.86Q1.33 4.92 1.88 4.25Q2.43 3.58 3.26 3.21Q4.09 2.84 5.21 2.84L5.21 2.84Q6.27 2.84 7.08 3.21Q7.90 3.58 8.46 4.25Q9.02 4.92 9.30 5.87Q9.59 6.82 9.59 7.98ZM2.34 7.98L2.34 7.98Q2.34 9.02 2.49 9.84Q2.65 10.66 2.99 11.22Q3.33 11.79 3.87 12.08Q4.42 12.38 5.20 12.38L5.20 12.38Q5.97 12.38 6.52 12.08Q7.06 11.79 7.40 11.22Q7.74 10.66 7.89 9.84Q8.04 9.02 8.04 7.98L8.04 7.98Q8.04 6.95 7.89 6.13Q7.74 5.31 7.40 4.75Q7.06 4.19 6.52 3.90Q5.99 3.60 5.21 3.60L5.21 3.60Q4.43 3.60 3.88 3.90Q3.34 4.19 2.99 4.75Q2.65 5.31 2.49 6.13Q2.34 6.95 2.34 7.98ZM14.24 6.10L14.24 6.10Q13.46 6.10 13.04 6.74Q12.62 7.37 12.54 8.59L12.54 8.59L15.76 8.59Q15.76 8.03 15.68 7.57Q15.60 7.12 15.42 6.79Q15.24 6.46 14.95 6.28Q14.66 6.10 14.24 6.10ZM14.41 13.13L14.41 13.13Q13.65 13.13 13.05 12.88Q12.44 12.62 12.02 12.13Q11.61 11.63 11.39 10.92Q11.16 10.21 11.16 9.30L11.16 9.30Q11.16 7.33 11.97 6.34Q12.78 5.35 14.27 5.35L14.27 5.35Q14.94 5.35 15.48 5.56Q16.02 5.78 16.40 6.20Q16.78 6.62 16.98 7.24Q17.18 7.87 17.18 8.70L17.18 8.70L17.18 9.34L12.52 9.34Q12.53 10.10 12.67 10.65Q12.81 11.20 13.07 11.56Q13.34 11.92 13.72 12.08Q14.10 12.25 14.60 12.25L14.60 12.25Q14.96 12.25 15.27 12.17Q15.59 12.09 15.84 11.95Q16.09 11.81 16.29 11.64Q16.48 11.46 16.60 11.27L16.60 11.27Q16.70 11.31 16.79 11.44Q16.87 11.57 16.87 11.75L16.87 11.75Q16.87 11.96 16.72 12.21Q16.57 12.45 16.26 12.65Q15.96 12.86 15.49 13.00Q15.03 13.13 14.41 13.13ZM21.73 6.10L21.73 6.10Q20.95 6.10 20.53 6.74Q20.11 7.37 20.04 8.59L20.04 8.59L23.26 8.59Q23.26 8.03 23.17 7.57Q23.09 7.12 22.91 6.79Q22.74 6.46 22.45 6.28Q22.16 6.10 21.73 6.10ZM21.90 13.13L21.90 13.13Q21.14 13.13 20.54 12.88Q19.93 12.62 19.52 12.13Q19.10 11.63 18.88 10.92Q18.66 10.21 18.66 9.30L18.66 9.30Q18.66 7.33 19.46 6.34Q20.27 5.35 21.76 5.35L21.76 5.35Q22.44 5.35 22.98 5.56Q23.52 5.78 23.89 6.20Q24.27 6.62 24.47 7.24Q24.67 7.87 24.67 8.70L24.67 8.70L24.67 9.34L20.01 9.34Q20.02 10.10 20.16 10.65Q20.30 11.20 20.57 11.56Q20.83 11.92 21.21 12.08Q21.59 12.25 22.09 12.25L22.09 12.25Q22.46 12.25 22.77 12.17Q23.08 12.09 23.33 11.95Q23.58 11.81 23.78 11.64Q23.97 11.46 24.10 11.27L24.10 11.27Q24.19 11.31 24.28 11.44Q24.36 11.57 24.36 11.75L24.36 11.75Q24.36 11.96 24.21 12.21Q24.06 12.45 23.75 12.65Q23.45 12.86 22.99 13.00Q22.52 13.13 21.90 13.13ZM33.90 13.00L29.54 13.00L29.54 12.41L29.72 12.41Q29.96 12.41 30.17 12.37Q30.38 12.34 30.54 12.23Q30.69 12.13 30.78 11.93Q30.87 11.73 30.87 11.40L30.87 11.40L30.87 4.54Q30.87 4.23 30.78 4.04Q30.69 3.86 30.53 3.75Q30.37 3.65 30.16 3.62Q29.96 3.59 29.72 3.59L29.72 3.59L29.54 3.59L29.54 3.00L33.48 3.00Q34.36 3.00 35.01 3.20Q35.66 3.40 36.08 3.78Q36.50 4.16 36.71 4.70Q36.92 5.24 36.92 5.93L36.92 5.93Q36.92 6.55 36.73 7.12Q36.53 7.70 36.09 8.14Q35.64 8.58 34.92 8.84Q34.21 9.11 33.17 9.11L33.17 9.11L32.29 9.11L32.29 11.47Q32.29 11.78 32.38 11.97Q32.47 12.15 32.63 12.25Q32.79 12.35 32.99 12.38Q33.20 12.41 33.43 12.41L33.43 12.41L33.90 12.41L33.90 13.00ZM32.29 3.67L32.29 8.44L33.03 8.44Q33.67 8.44 34.12 8.31Q34.57 8.18 34.86 7.88Q35.14 7.58 35.28 7.11Q35.41 6.64 35.41 5.98L35.41 5.98Q35.41 5.39 35.29 4.96Q35.18 4.53 34.92 4.24Q34.66 3.95 34.24 3.81Q33.83 3.67 33.24 3.67L33.24 3.67L32.29 3.67ZM41.32 6.10L41.32 6.10Q40.54 6.10 40.12 6.74Q39.70 7.37 39.62 8.59L39.62 8.59L42.84 8.59Q42.84 8.03 42.76 7.57Q42.68 7.12 42.50 6.79Q42.32 6.46 42.03 6.28Q41.74 6.10 41.32 6.10ZM41.49 13.13L41.49 13.13Q40.73 13.13 40.12 12.88Q39.52 12.62 39.10 12.13Q38.68 11.63 38.46 10.92Q38.24 10.21 38.24 9.30L38.24 9.30Q38.24 7.33 39.05 6.34Q39.85 5.35 41.34 5.35L41.34 5.35Q42.02 5.35 42.56 5.56Q43.10 5.78 43.48 6.20Q43.85 6.62 44.05 7.24Q44.26 7.87 44.26 8.70L44.26 8.70L44.26 9.34L39.59 9.34Q39.61 10.10 39.75 10.65Q39.89 11.20 40.15 11.56Q40.41 11.92 40.80 12.08Q41.18 12.25 41.68 12.25L41.68 12.25Q42.04 12.25 42.35 12.17Q42.66 12.09 42.92 11.95Q43.17 11.81 43.36 11.64Q43.56 11.46 43.68 11.27L43.68 11.27Q43.78 11.31 43.86 11.44Q43.95 11.57 43.95 11.75L43.95 11.75Q43.95 11.96 43.80 12.21Q43.65 12.45 43.34 12.65Q43.03 12.86 42.57 13.00Q42.11 13.13 41.49 13.13ZM48.81 6.10L48.81 6.10Q48.03 6.10 47.61 6.74Q47.19 7.37 47.11 8.59L47.11 8.59L50.33 8.59Q50.33 8.03 50.25 7.57Q50.17 7.12 49.99 6.79Q49.81 6.46 49.52 6.28Q49.23 6.10 48.81 6.10ZM48.98 13.13L48.98 13.13Q48.22 13.13 47.62 12.88Q47.01 12.62 46.59 12.13Q46.18 11.63 45.95 10.92Q45.73 10.21 45.73 9.30L45.73 9.30Q45.73 7.33 46.54 6.34Q47.35 5.35 48.84 5.35L48.84 5.35Q49.51 5.35 50.05 5.56Q50.59 5.78 50.97 6.20Q51.34 6.62 51.55 7.24Q51.75 7.87 51.75 8.70L51.75 8.70L51.75 9.34L47.09 9.34Q47.10 10.10 47.24 10.65Q47.38 11.20 47.64 11.56Q47.91 11.92 48.29 12.08Q48.67 12.25 49.17 12.25L49.17 12.25Q49.53 12.25 49.84 12.17Q50.16 12.09 50.41 11.95Q50.66 11.81 50.86 11.64Q51.05 11.46 51.17 11.27L51.17 11.27Q51.27 11.31 51.35 11.44Q51.44 11.57 51.44 11.75L51.44 11.75Q51.44 11.96 51.29 12.21Q51.14 12.45 50.83 12.65Q50.52 12.86 50.06 13.00Q49.60 13.13 48.98 13.13ZM55.93 16.36L55.93 15.70L56.06 15.70Q56.51 15.70 56.86 15.57Q57.22 15.44 57.46 15.15Q57.70 14.85 57.82 14.35Q57.95 13.86 57.95 13.12L57.95 13.12L57.95 4.54Q57.95 4.23 57.86 4.04Q57.76 3.86 57.61 3.75Q57.45 3.65 57.24 3.62Q57.03 3.59 56.80 3.59L56.80 3.59L56.62 3.59L56.62 3.00L60.70 3.00L60.70 3.59L60.51 3.59Q60.28 3.59 60.07 3.62Q59.86 3.66 59.70 3.76Q59.55 3.87 59.46 4.07Q59.36 4.27 59.36 4.59L59.36 4.59L59.36 13.10Q59.36 14.05 59.12 14.67Q58.87 15.30 58.44 15.67Q58.01 16.04 57.43 16.20Q56.84 16.36 56.17 16.36L56.17 16.36L55.93 16.36ZM64.93 6.10L64.93 6.10Q64.16 6.10 63.73 6.74Q63.31 7.37 63.24 8.59L63.24 8.59L66.46 8.59Q66.46 8.03 66.38 7.57Q66.29 7.12 66.12 6.79Q65.94 6.46 65.65 6.28Q65.36 6.10 64.93 6.10ZM65.11 13.13L65.11 13.13Q64.35 13.13 63.74 12.88Q63.14 12.62 62.72 12.13Q62.30 11.63 62.08 10.92Q61.86 10.21 61.86 9.30L61.86 9.30Q61.86 7.33 62.67 6.34Q63.47 5.35 64.96 5.35L64.96 5.35Q65.64 5.35 66.18 5.56Q66.72 5.78 67.09 6.20Q67.47 6.62 67.67 7.24Q67.87 7.87 67.87 8.70L67.87 8.70L67.87 9.34L63.21 9.34Q63.23 10.10 63.37 10.65Q63.51 11.20 63.77 11.56Q64.03 11.92 64.42 12.08Q64.80 12.25 65.30 12.25L65.30 12.25Q65.66 12.25 65.97 12.17Q66.28 12.09 66.53 11.95Q66.79 11.81 66.98 11.64Q67.18 11.46 67.30 11.27L67.30 11.27Q67.40 11.31 67.48 11.44Q67.57 11.57 67.57 11.75L67.57 11.75Q67.57 11.96 67.42 12.21Q67.27 12.45 66.96 12.65Q66.65 12.86 66.19 13.00Q65.73 13.13 65.11 13.13ZM70.64 10.96L70.64 10.96Q70.64 11.62 70.91 11.95Q71.19 12.27 71.77 12.27L71.77 12.27Q72.19 12.27 72.54 12.13Q72.88 12.00 73.13 11.74Q73.37 11.49 73.50 11.13Q73.63 10.77 73.63 10.32L73.63 10.32L73.63 9.19L72.73 9.23Q72.14 9.26 71.74 9.38Q71.34 9.50 71.09 9.71Q70.85 9.93 70.74 10.24Q70.64 10.55 70.64 10.96ZM72.33 6.05L72.33 6.05Q71.93 6.05 71.68 6.16Q71.43 6.28 71.29 6.48Q71.15 6.69 71.10 6.97Q71.05 7.25 71.05 7.57L71.05 7.57Q70.47 7.57 70.17 7.38Q69.86 7.18 69.86 6.69L69.86 6.69Q69.86 6.33 70.06 6.08Q70.26 5.82 70.60 5.66Q70.95 5.50 71.41 5.43Q71.87 5.35 72.39 5.35L72.39 5.35Q73.03 5.35 73.51 5.48Q73.99 5.61 74.31 5.89Q74.63 6.18 74.79 6.64Q74.95 7.10 74.95 7.77L74.95 7.77L74.95 11.40Q74.95 11.70 75.00 11.89Q75.04 12.08 75.15 12.20Q75.25 12.31 75.42 12.36Q75.58 12.41 75.82 12.41L75.82 12.41L75.86 12.41L75.86 13.00L73.96 13.00L73.75 11.79L73.63 11.79Q73.41 12.09 73.21 12.33Q73.00 12.58 72.75 12.76Q72.51 12.93 72.20 13.03Q71.89 13.13 71.45 13.13L71.45 13.13Q70.98 13.13 70.58 13.00Q70.18 12.87 69.89 12.59Q69.60 12.31 69.44 11.89Q69.28 11.47 69.28 10.90L69.28 10.90Q69.28 9.78 70.07 9.24Q70.86 8.70 72.47 8.65L72.47 8.65L73.63 8.61L73.63 7.77Q73.63 7.40 73.59 7.08Q73.55 6.76 73.41 6.53Q73.27 6.30 73.02 6.18Q72.76 6.05 72.33 6.05ZM80.58 12.41L80.62 12.41L80.62 13.00L76.85 13.00L76.85 12.41L76.97 12.41Q77.21 12.41 77.41 12.37Q77.62 12.34 77.78 12.23Q77.93 12.13 78.02 11.93Q78.11 11.73 78.11 11.40L78.11 11.40L78.11 7.03Q78.11 6.73 78.02 6.54Q77.93 6.35 77.77 6.25Q77.62 6.15 77.41 6.11Q77.20 6.08 76.97 6.08L76.97 6.08L76.92 6.08L76.92 5.49L79.19 5.49L79.37 6.62L79.44 6.62Q79.66 6.23 79.90 5.98Q80.14 5.74 80.41 5.60Q80.68 5.46 80.99 5.40Q81.29 5.35 81.63 5.35L81.63 5.35Q82.18 5.35 82.62 5.51Q83.05 5.67 83.35 6.01Q83.66 6.34 83.82 6.86Q83.98 7.38 83.98 8.09L83.98 8.09L83.98 11.40Q83.98 11.73 84.06 11.93Q84.14 12.13 84.28 12.23Q84.42 12.34 84.62 12.37Q84.82 12.41 85.05 12.41L85.05 12.41L85.10 12.41L85.10 13.00L82.66 13.00L82.66 8.16Q82.66 7.70 82.58 7.35Q82.50 6.99 82.31 6.75Q82.13 6.50 81.84 6.37Q81.55 6.25 81.12 6.25L81.12 6.25Q80.64 6.25 80.32 6.43Q79.99 6.62 79.80 6.93Q79.60 7.25 79.51 7.66Q79.43 8.07 79.43 8.52L79.43 8.52L79.43 11.47Q79.43 11.78 79.52 11.97Q79.61 12.15 79.77 12.25Q79.93 12.35 80.13 12.38Q80.34 12.41 80.58 12.41L80.58 12.41ZM88.43 13.13L88.43 13.13Q87.90 13.13 87.48 13.04Q87.05 12.95 86.75 12.76Q86.45 12.57 86.28 12.29Q86.12 12.02 86.12 11.65L86.12 11.65Q86.12 11.37 86.21 11.18Q86.30 10.99 86.44 10.88Q86.57 10.77 86.72 10.73Q86.88 10.68 87.00 10.68L87.00 10.68Q87.00 11.05 87.08 11.38Q87.15 11.70 87.33 11.94Q87.51 12.18 87.80 12.32Q88.09 12.46 88.51 12.46L88.51 12.46Q88.89 12.46 89.17 12.37Q89.46 12.28 89.66 12.11Q89.85 11.94 89.95 11.71Q90.06 11.47 90.06 11.19L90.06 11.19Q90.06 10.93 89.98 10.74Q89.90 10.55 89.70 10.39Q89.51 10.23 89.17 10.06Q88.84 9.88 88.33 9.67L88.33 9.67Q87.79 9.43 87.39 9.20Q86.99 8.98 86.73 8.72Q86.47 8.46 86.34 8.13Q86.21 7.80 86.21 7.34L86.21 7.34Q86.21 6.86 86.40 6.49Q86.59 6.13 86.94 5.88Q87.29 5.63 87.77 5.50Q88.26 5.37 88.85 5.37L88.85 5.37Q89.35 5.37 89.74 5.47Q90.12 5.57 90.38 5.75Q90.64 5.92 90.77 6.16Q90.90 6.39 90.90 6.65L90.90 6.65Q90.90 7.03 90.63 7.26Q90.37 7.49 89.89 7.49L89.89 7.49Q89.89 6.79 89.60 6.40Q89.30 6.01 88.68 6.01L88.68 6.01Q88.33 6.01 88.07 6.09Q87.82 6.17 87.66 6.32Q87.50 6.47 87.42 6.68Q87.35 6.88 87.35 7.13L87.35 7.13Q87.35 7.40 87.45 7.59Q87.54 7.79 87.75 7.95Q87.96 8.11 88.29 8.27Q88.62 8.42 89.09 8.61L89.09 8.61Q89.64 8.85 90.04 9.07Q90.43 9.30 90.69 9.56Q90.95 9.83 91.07 10.17Q91.19 10.50 91.19 10.94L91.19 10.94Q91.19 11.48 90.99 11.89Q90.79 12.30 90.43 12.58Q90.07 12.86 89.56 13.00Q89.05 13.13 88.43 13.13Z"></path></g><!----><!----></svg>