<svg data-v-fde0c5aa="" xmlns="http://www.w3.org/2000/svg" viewBox="0 0 300 300" class="font"><!----><defs data-v-fde0c5aa=""><!----></defs><rect data-v-fde0c5aa="" fill="transparent" x="0" y="0" width="300px" height="300px" class="logo-background-square"></rect><defs data-v-fde0c5aa=""><linearGradient data-v-fde0c5aa="" gradientTransform="rotate(25)" id="a2642c27-c7de-4830-8908-1c114e865213" x1="0%" y1="0%" x2="100%" y2="0%"><stop data-v-fde0c5aa="" offset="0%" stop-color="#51A4FB" stop-opacity="1"></stop><stop data-v-fde0c5aa="" offset="100%" stop-color="#51A4FB" stop-opacity="1"></stop></linearGradient></defs><g data-v-fde0c5aa="" id="83f83d43-852b-4740-8dc5-d0e7d4891657" fill="url(#a2642c27-c7de-4830-8908-1c114e865213)" transform="matrix(4.3179587184623935,0,0,4.3179587184623935,37.279686027958306,107.05789980366475)"><path d="M0.63 9.10L0.63 9.10Q0.63 8.43 0.87 8.06L0.87 8.06Q1.37 7.25 1.82 7.01Q2.27 6.76 3.15 6.76L3.15 6.76Q3.67 6.76 4.23 7L4.23 7Q4.38 7.06 4.46 7.10Q4.54 7.15 4.62 7.30Q4.70 7.45 4.70 7.69L4.70 7.69Q4.70 7.73 4.69 7.90Q4.68 8.08 4.67 8.39Q4.66 8.69 4.66 9.06L4.66 9.06L4.14 9.06Q4.13 8.88 4.03 8.53Q3.92 8.18 3.79 7.99L3.79 7.99Q3.51 7.59 2.74 7.59L2.74 7.59Q2.37 7.59 2.11 7.69Q1.86 7.80 1.76 7.96Q1.65 8.12 1.61 8.25Q1.57 8.39 1.57 8.51L1.57 8.51Q1.57 8.96 1.92 9.23Q2.27 9.51 2.77 9.67Q3.28 9.84 3.79 10.04Q4.30 10.25 4.65 10.72Q5.00 11.19 5.00 11.90L5.00 11.90Q5.00 12.64 4.79 12.99L4.79 12.99Q4.41 13.59 3.89 14L3.89 14Q3.68 14.15 3.23 14.25Q2.79 14.35 2.56 14.35L2.56 14.35Q1.06 14.35 0.77 13.85L0.77 13.85Q0.66 13.66 0.66 13.37L0.66 13.37Q0.66 12.24 0.72 11.98Q0.78 11.72 1.04 11.72L1.04 11.72Q1.25 11.72 1.30 11.91Q1.36 12.11 1.41 12.45Q1.46 12.80 1.61 13.01L1.61 13.01Q1.93 13.45 2.77 13.45L2.77 13.45Q3.39 13.45 3.74 13.17Q4.09 12.89 4.09 12.40L4.09 12.40Q4.09 11.93 3.73 11.65Q3.37 11.37 2.86 11.21Q2.35 11.05 1.85 10.86Q1.34 10.67 0.99 10.23Q0.63 9.80 0.63 9.10ZM6.78 7.84L5.56 7.84L5.56 7.42L6.78 7.18L6.78 5.89Q7.59 5.66 7.81 5.57L7.81 5.57Q7.84 5.56 7.85 5.56L7.85 5.56Q8.06 5.56 8.06 5.77L8.06 5.77Q8.06 5.82 8.05 6.10Q8.04 6.38 8.04 6.62L8.04 6.62L8.04 7.06L9.81 7.06L9.77 7.84L8.04 7.84Q8.04 8.62 8.02 9.77Q7.99 10.92 7.99 11.30L7.99 11.30Q7.99 12.38 8.13 12.85Q8.26 13.33 8.65 13.33L8.65 13.33Q8.99 13.33 9.67 12.92L9.67 12.92L9.97 13.20Q8.89 14.32 8.20 14.32L8.20 14.32Q7.29 14.32 7.01 13.71Q6.73 13.09 6.73 11.48L6.73 11.48Q6.73 11.07 6.75 9.86Q6.78 8.65 6.78 7.84L6.78 7.84ZM10.67 12.42L10.67 12.42Q10.67 11.93 10.77 11.55Q10.86 11.17 11.09 10.92Q11.31 10.67 11.54 10.50Q11.76 10.33 12.17 10.21Q12.59 10.09 12.89 10.03Q13.19 9.97 13.73 9.86Q14.28 9.76 14.62 9.69L14.62 9.69Q14.62 9.49 14.62 9.20Q14.63 8.90 14.63 8.85L14.63 8.85Q14.63 8.20 14.17 7.92Q13.71 7.64 13.10 7.64L13.10 7.64Q12.40 7.64 12.15 7.97Q11.90 8.30 11.61 9.38L11.61 9.38L11.03 9.32Q11.03 9.28 11.04 9.04Q11.05 8.79 11.08 8.60Q11.12 8.41 11.19 8.12Q11.27 7.83 11.46 7.61Q11.65 7.39 11.93 7.18Q12.21 6.97 12.67 6.86Q13.13 6.75 13.73 6.75L13.73 6.75Q14.35 6.75 14.78 6.89Q15.22 7.03 15.44 7.20Q15.65 7.38 15.77 7.68Q15.89 7.98 15.90 8.16Q15.92 8.34 15.92 8.62L15.92 8.62Q15.92 9.69 15.89 10.90Q15.86 12.11 15.86 12.32L15.86 12.32Q15.86 12.67 16.18 13.17Q16.49 13.66 16.49 13.75L16.49 13.75Q16.49 13.82 16.37 13.86L16.37 13.86Q15.39 14.18 15.29 14.18L15.29 14.18Q15.15 14.18 15.03 13.98Q14.91 13.78 14.81 13.48Q14.71 13.19 14.70 13.17L14.70 13.17Q14.49 13.31 14.18 13.52Q13.87 13.73 13.76 13.81Q13.64 13.89 13.42 14Q13.20 14.11 13.03 14.15Q12.87 14.20 12.61 14.22Q12.36 14.25 12.04 14.25L12.04 14.25Q11.31 14.25 10.99 13.72Q10.67 13.19 10.67 12.42ZM11.93 12.28L11.93 12.28Q11.93 13.31 12.87 13.31L12.87 13.31Q13.69 13.31 14.53 12.61L14.53 12.61Q14.63 12.53 14.63 11.42L14.63 11.42Q14.63 10.65 14.62 10.23L14.62 10.23Q14.36 10.32 13.98 10.44Q13.59 10.57 13.43 10.63Q13.27 10.68 13.01 10.77Q12.74 10.86 12.65 10.92Q12.56 10.98 12.40 11.06Q12.24 11.14 12.19 11.22Q12.15 11.30 12.07 11.40Q11.98 11.51 11.97 11.64Q11.96 11.77 11.94 11.92Q11.93 12.07 11.93 12.28ZM21.07 14.11L17.15 14.11L17.15 13.64Q17.49 13.59 17.60 13.59Q17.71 13.58 17.89 13.50Q18.06 13.43 18.09 13.36Q18.12 13.30 18.17 13.09Q18.23 12.88 18.23 12.67Q18.23 12.46 18.23 12.03L18.23 12.03L18.23 11.56Q18.23 8.75 18.13 8.26Q18.03 7.77 17.46 7.73L17.46 7.73Q17.37 7.71 17.32 7.71L17.32 7.71L17.29 7.18Q17.85 7.13 18.44 6.92Q19.03 6.71 19.18 6.71L19.18 6.71Q19.36 6.71 19.43 6.87Q19.50 7.03 19.50 7.45L19.50 7.45L19.52 7.98Q20.75 6.79 21.46 6.79L21.46 6.79Q21.98 6.79 22.18 6.92Q22.37 7.04 22.37 7.38L22.37 7.38Q22.37 7.49 22.15 8.89L22.15 8.89L21.64 8.89Q21.57 7.84 20.93 7.84L20.93 7.84Q20.57 7.84 20.04 8.17Q19.52 8.50 19.52 9.04L19.52 9.04Q19.52 9.44 19.51 11.01Q19.50 12.59 19.50 12.84L19.50 12.84Q19.50 13.27 19.75 13.40Q20.01 13.54 20.93 13.66L20.93 13.66Q21.03 13.68 21.07 13.68L21.07 13.68L21.07 14.11ZM26.18 7.55L26.15 7.08Q26.75 7.03 27.25 6.94Q27.75 6.86 27.98 6.80Q28.21 6.75 28.25 6.75L28.25 6.75Q28.50 6.75 28.50 6.97L28.50 6.97Q28.50 6.99 28.48 7.33Q28.46 7.67 28.46 7.76L28.46 7.76Q28.57 7.70 29.02 7.41Q29.46 7.11 29.89 6.93Q30.32 6.75 30.77 6.75L30.77 6.75Q30.91 6.75 31.11 6.78Q31.32 6.82 31.70 7.01Q32.07 7.20 32.37 7.50Q32.66 7.80 32.89 8.43Q33.12 9.06 33.12 9.88L33.12 9.88Q33.12 11.90 32.29 13.05Q31.46 14.20 30.16 14.20L30.16 14.20Q29.85 14.20 29.59 14.16Q29.33 14.13 29.16 14.06Q28.98 13.99 28.85 13.92Q28.73 13.85 28.64 13.74Q28.56 13.64 28.52 13.57Q28.48 13.51 28.43 13.42Q28.39 13.33 28.38 13.31L28.38 13.31Q28.36 13.75 28.34 14.52Q28.32 15.29 28.32 15.48L28.32 15.48Q28.34 16.06 28.48 16.22Q28.62 16.38 29.16 16.48L29.16 16.48L29.16 16.95L26.31 16.95L26.31 16.51Q26.75 16.45 26.94 16.31Q27.12 16.17 27.12 15.90L27.12 15.90Q27.10 14.59 27.10 8.30L27.10 8.30Q27.10 7.80 26.96 7.67Q26.81 7.55 26.18 7.55L26.18 7.55ZM28.38 10.95L28.38 10.95Q28.38 12.42 28.68 12.97Q28.98 13.52 29.89 13.52L29.89 13.52Q30.66 13.52 31.22 12.73Q31.78 11.94 31.78 10.30L31.78 10.30Q31.78 7.83 30.17 7.83L30.17 7.83Q29.46 7.83 28.45 8.34L28.45 8.34Q28.45 8.75 28.41 9.64Q28.38 10.53 28.38 10.95ZM33.91 10.47L33.91 10.47Q33.91 9.24 34.48 8.30L34.48 8.30Q34.86 7.71 35.80 7.23Q36.74 6.75 37.35 6.75L37.35 6.75Q38.60 6.75 39.48 7.55Q40.36 8.34 40.36 10.00L40.36 10.00Q40.36 11.72 39.75 12.66L39.75 12.66Q38.92 13.76 38.14 14.11L38.14 14.11Q37.60 14.35 36.86 14.35L36.86 14.35Q36.46 14.35 36.09 14.27Q35.73 14.20 35.31 13.94Q34.90 13.69 34.60 13.29Q34.30 12.88 34.10 12.16Q33.91 11.44 33.91 10.47ZM35.24 10.36L35.24 10.36Q35.24 12.04 35.82 12.70Q36.40 13.36 37.51 13.36L37.51 13.36Q37.93 13.36 38.12 13.29L38.12 13.29Q39.09 12.91 39.09 10.37L39.09 10.37Q39.09 9.18 38.77 8.63Q38.46 8.08 37.69 7.84L37.69 7.84Q37.30 7.74 36.93 7.74L36.93 7.74Q36.65 7.74 36.51 7.76Q36.36 7.77 36.12 7.84Q35.88 7.91 35.76 8.07Q35.63 8.23 35.49 8.51Q35.35 8.79 35.29 9.26Q35.24 9.73 35.24 10.36ZM44.39 14.11L41.09 14.11L41.09 13.64Q41.20 13.62 41.38 13.59Q41.57 13.55 41.62 13.54Q41.68 13.54 41.80 13.50Q41.92 13.45 41.94 13.43Q41.97 13.40 42.04 13.31Q42.11 13.23 42.12 13.15Q42.13 13.06 42.15 12.91Q42.18 12.77 42.18 12.60Q42.18 12.43 42.18 12.18L42.18 12.18L42.18 9.59Q42.18 8.15 42.14 4.98L42.14 4.98L42.13 4.31Q42.11 3.96 41.96 3.86Q41.80 3.77 41.34 3.77L41.34 3.77L41.16 3.77L41.13 3.30Q41.73 3.23 42.22 3.14Q42.71 3.05 42.95 3.00Q43.18 2.94 43.23 2.94L43.23 2.94Q43.47 2.94 43.47 3.15L43.47 3.15Q43.50 4.30 43.50 6.03L43.50 6.03Q43.50 7.74 43.43 9.70Q43.36 11.65 43.36 12.78L43.36 12.78Q43.36 13.31 43.52 13.43Q43.68 13.55 44.39 13.64L44.39 13.64L44.39 14.11ZM45.12 10.47L45.12 10.47Q45.12 9.24 45.70 8.30L45.70 8.30Q46.07 7.71 47.01 7.23Q47.95 6.75 48.57 6.75L48.57 6.75Q49.81 6.75 50.69 7.55Q51.58 8.34 51.58 10.00L51.58 10.00Q51.58 11.72 50.96 12.66L50.96 12.66Q50.13 13.76 49.35 14.11L49.35 14.11Q48.82 14.35 48.08 14.35L48.08 14.35Q47.67 14.35 47.31 14.27Q46.94 14.20 46.53 13.94Q46.12 13.69 45.81 13.29Q45.51 12.88 45.32 12.16Q45.12 11.44 45.12 10.47ZM46.45 10.36L46.45 10.36Q46.45 12.04 47.03 12.70Q47.61 13.36 48.72 13.36L48.72 13.36Q49.14 13.36 49.34 13.29L49.34 13.29Q50.30 12.91 50.30 10.37L50.30 10.37Q50.30 9.18 49.99 8.63Q49.67 8.08 48.90 7.84L48.90 7.84Q48.51 7.74 48.15 7.74L48.15 7.74Q47.87 7.74 47.72 7.76Q47.57 7.77 47.33 7.84Q47.10 7.91 46.97 8.07Q46.84 8.23 46.70 8.51Q46.56 8.79 46.51 9.26Q46.45 9.73 46.45 10.36Z"></path></g><!----><!----></svg>