<svg xmlns="http://www.w3.org/2000/svg" fill="none" viewBox="0 0 40 40" height="40" width="40">
<path fill="black" d="M37.0901 7.77499L29.897 5.74127C29.3622 5.58677 29.0295 5.63431 28.8037 5.81406L25.3914 8.49994C25.0467 8.79705 25.2606 9.15507 25.5459 9.24866L32.6438 11.2348C33.0598 11.3537 33.2618 11.4369 33.6065 11.1754L37.1139 8.42863C37.4823 8.14341 37.2921 7.89383 37.0901 7.77499ZM16.7484 36.7715L29.0889 24.9777L24.6783 19.6163L32.4403 13.6236L2.60001 5.43227L14.7622 12.4352L3.09915 12.043C3.09915 12.043 14.5364 15.1225 16.6533 15.8594C18.7821 16.5962 17.9844 17.4281 17.8774 17.5588C17.7705 17.691 16.5701 18.8914 15.6432 19.6876C14.7147 20.4839 15.915 21.4599 15.915 21.4599L21.6106 25.7873L16.7484 36.7715Z" clip-rule="evenodd" fill-rule="evenodd"/>
<script xmlns=""/></svg>